<svg width="15" height="15" viewBox="0 0 15 15" fill="none" xmlns="http://www.w3.org/2000/svg">
<circle cx="7.5" cy="7.5" r="7.5" fill="#7F0080"/>
<path d="M6.87288 10.5V6.196H8.12088V10.5H6.87288ZM7.49688 5.596C7.26754 5.596 7.08088 5.52933 6.93688 5.396C6.79288 5.26267 6.72088 5.09733 6.72088 4.9C6.72088 4.70267 6.79288 4.53733 6.93688 4.404C7.08088 4.27067 7.26754 4.204 7.49688 4.204C7.72621 4.204 7.91288 4.268 8.05688 4.396C8.20088 4.51867 8.27288 4.67867 8.27288 4.876C8.27288 5.084 8.20088 5.25733 8.05688 5.396C7.91821 5.52933 7.73154 5.596 7.49688 5.596Z" fill="white"/>
</svg>
